<svg width="23" height="23" viewBox="0 0 23 23" fill="none" xmlns="http://www.w3.org/2000/svg">
<mask id="mask0_1_151" style="mask-type:luminance" maskUnits="userSpaceOnUse" x="0" y="0" width="23" height="23">
<path d="M0.572876 0.645813H22.5729V22.6458H0.572876V0.645813Z" fill="white"/>
</mask>
<g mask="url(#mask0_1_151)">
<path fill-rule="evenodd" clip-rule="evenodd" d="M14.7135 16.7344L20.099 22.1198C20.6354 22.651 21.5 22.651 22.0313 22.1198C22.5677 21.5885 22.5677 20.7187 22.0313 20.1875L16.6458 14.8021C17.7292 13.3281 18.3698 11.5104 18.3698 9.54165C18.3698 4.63019 14.3854 0.645813 9.47396 0.645813C4.5625 0.645813 0.578125 4.63019 0.578125 9.54165C0.578125 14.4531 4.5625 18.4375 9.47396 18.4375C11.4323 18.4375 13.2396 17.8073 14.7135 16.7344ZM9.47396 3.38019C12.875 3.38019 15.6354 6.14061 15.6354 9.54165C15.6354 12.9427 12.875 15.7031 9.47396 15.7031C6.07292 15.7031 3.3125 12.9427 3.3125 9.54165C3.3125 6.14061 6.07292 3.38019 9.47396 3.38019Z" fill="black"/>
</g>
</svg>
